<?xml version="1.0" standalone="no"?>
<!DOCTYPE svg PUBLIC "-//W3C//DTD SVG 20010904//EN"
 "http://www.w3.org/TR/2001/REC-SVG-20010904/DTD/svg10.dtd">
<svg version="1.0" xmlns="http://www.w3.org/2000/svg"
 width="300.000000pt" height="82.000000pt" viewBox="0 0 300.000000 82.000000"
 preserveAspectRatio="xMidYMid meet">
<metadata>
Created by potrace 1.10, written by Peter Selinger 2001-2011
</metadata>
<g transform="translate(0.000000,82.000000) scale(0.100000,-0.100000)"
fill="#000000" stroke="none">
<path d="M1326 719 c-21 -5 -51 -18 -67 -30 l-29 -20 0 -233 c0 -229 0 -233
23 -254 55 -52 207 -73 310 -43 61 18 107 59 107 98 0 24 7 31 53 53 64 31 92
71 102 145 12 102 -36 175 -116 175 -35 0 -39 3 -39 25 0 35 -30 61 -91 79
-57 17 -190 20 -253 5z m282 -42 l32 -18 -2 -227 -3 -227 -50 -25 c-85 -42
-248 -33 -307 18 -16 14 -18 38 -18 238 0 248 -5 231 69 255 47 15 242 5 279
-14z m162 -117 c26 -26 34 -60 28 -121 -7 -72 -50 -121 -125 -144 -19 -5 -23
-2 -23 14 0 12 6 21 15 21 32 0 77 32 91 65 19 46 18 105 -2 134 -14 20 -23
23 -60 18 -38 -4 -44 -2 -44 14 0 28 92 27 120 -1z m-42 -42 c7 -7 12 -34 12
-60 0 -39 -5 -54 -25 -73 -39 -40 -45 -32 -45 54 0 81 0 81 41 90 3 0 10 -4
17 -11z"/>
<path d="M1309 654 c-11 -14 -10 -18 5 -30 40 -29 227 -32 261 -4 17 14 20 40
5 40 -5 0 -9 -6 -7 -12 1 -8 -5 -11 -18 -8 -33 8 -188 6 -213 -3 -21 -8 -23
-7 -17 12 8 25 2 27 -16 5z"/>
</g>
</svg>
